<svg width="200" height="200" xmlns="http://www.w3.org/2000/svg" class="iconAbove">
 <!---->
 <defs>
  <!---->
 </defs>
 <!---->
 <g>
  <title>Layer 1</title>
  <rect stroke-width="0" x="0" y="0" stroke="null" rx="100" id="svg_1" class="logo-background-square" height="200" width="200" fill="#eab71e"/>
  <g transform="matrix(1.59949 0 0 1.59949 34.0187 -43.0456)" fill="#ffffff" id="9d10ae1c-6121-4d74-a649-3dcf28f10181" xmlns="http://www.w3.org/2000/svg">
   <path id="svg_2" d="m49.36741,103.44152l-15.186,0a6.15,6.15 0 0 1 -6.143,-6.142l0,-15.185a6.15,6.15 0 0 1 6.143,-6.143l15.186,0a6.15,6.15 0 0 1 6.142,6.143l0,15.186a6.148,6.148 0 0 1 -6.142,6.141zm-15.186,-23.01c-0.929,0 -1.684,0.755 -1.684,1.684l0,15.186c0,0.927 0.755,1.683 1.684,1.683l15.186,0c0.927,0 1.683,-0.756 1.683,-1.683l0,-15.187c0,-0.928 -0.756,-1.684 -1.683,-1.684l-15.186,0l0,0.001zm7.595,-27.63a4.176,4.176 0 0 1 -4.172,-4.171c0,-2.3 1.87,-4.171 4.172,-4.171c2.3,0 4.17,1.871 4.17,4.171a4.175,4.175 0 0 1 -4.17,4.171zm0,8.657a3.137,3.137 0 0 1 -3.134,-3.132c0,-1.727 1.406,-3.134 3.134,-3.134s3.132,1.407 3.132,3.134a3.135,3.135 0 0 1 -3.132,3.132z"/>
   <circle id="svg_3" r="2.094" cy="66.02452" cx="41.77541"/>
   <path id="svg_4" d="m15.85541,63.53652a4.174,4.174 0 0 1 -5.898,0a4.175,4.175 0 0 1 -0.002,-5.898a4.178,4.178 0 0 1 5.9,0.001a4.176,4.176 0 0 1 0,5.897zm6.122,6.123a3.137,3.137 0 0 1 -4.43,0a3.135,3.135 0 0 1 0,-4.43a3.137,3.137 0 0 1 4.43,0a3.138,3.138 0 0 1 0,4.43zm1.748,4.709a2.093,2.093 0 1 1 2.961,-2.961a2.098,2.098 0 0 1 0,2.962a2.095,2.095 0 0 1 -2.961,-0.001zm-18.608,15.091a4.176,4.176 0 0 1 -4.17,4.17a4.175,4.175 0 0 1 -4.171,-4.17a4.174,4.174 0 0 1 4.169,-4.172a4.179,4.179 0 0 1 4.172,4.172zm8.658,-0.002a3.14,3.14 0 0 1 -3.132,3.134a3.137,3.137 0 0 1 -3.133,-3.134a3.14,3.14 0 0 1 3.133,-3.134a3.14,3.14 0 0 1 3.132,3.134zm4.566,2.096a2.096,2.096 0 1 1 0,-4.192a2.096,2.096 0 0 1 0,4.192zm-2.486,23.827a4.177,4.177 0 0 1 0,5.898a4.183,4.183 0 0 1 -5.9,0a4.177,4.177 0 0 1 0,-5.898a4.183,4.183 0 0 1 5.9,0zm6.12,-6.12a3.13,3.13 0 0 1 0.002,4.424a3.126,3.126 0 0 1 -4.43,0a3.138,3.138 0 0 1 0,-4.431a3.133,3.133 0 0 1 4.428,0.007zm4.709,-1.749a2.096,2.096 0 1 1 -2.963,-2.964a2.096,2.096 0 0 1 2.963,2.964zm15.092,18.605c2.3,0 4.17,1.871 4.17,4.17c-0.003,2.3 -1.874,4.174 -4.173,4.174s-4.169,-1.871 -4.169,-4.17s1.87,-4.17 4.172,-4.174zm-0.003,-8.656a3.133,3.133 0 0 1 3.132,3.128a3.132,3.132 0 0 1 -6.263,0a3.13,3.13 0 0 1 3.131,-3.128zm2.094,-4.567a2.1,2.1 0 0 1 -2.094,2.098a2.097,2.097 0 0 1 0,-4.195a2.101,2.101 0 0 1 2.094,2.097zm23.831,2.487a4.174,4.174 0 0 1 5.895,-0.003a4.184,4.184 0 0 1 0.003,5.904a4.18,4.18 0 0 1 -5.897,0a4.18,4.18 0 0 1 -0.001,-5.901zm-6.124,-6.12a3.13,3.13 0 1 1 4.428,4.427a3.13,3.13 0 0 1 -4.428,-4.427zm-1.749,-4.71a2.1,2.1 0 0 1 0.004,2.964a2.102,2.102 0 0 1 -2.969,-0.003a2.102,2.102 0 0 1 0,-2.965a2.102,2.102 0 0 1 2.965,0.004zm18.609,-15.091c0,-2.3 1.869,-4.172 4.168,-4.172a4.18,4.18 0 0 1 4.174,4.172a4.175,4.175 0 0 1 -4.17,4.17a4.176,4.176 0 0 1 -4.172,-4.17zm-8.656,0a3.13,3.13 0 1 1 6.26,0a3.137,3.137 0 0 1 -3.132,3.135a3.13,3.13 0 0 1 -3.128,-3.135zm-4.567,-2.094c1.156,0 2.09,0.937 2.094,2.094a2.1,2.1 0 0 1 -2.098,2.097a2.101,2.101 0 0 1 -2.097,-2.097a2.101,2.101 0 0 1 2.101,-2.094zm2.487,-23.829a4.171,4.171 0 0 1 -0.004,-5.896a4.179,4.179 0 0 1 5.901,-0.002a4.174,4.174 0 0 1 0,5.896a4.176,4.176 0 0 1 -5.897,0.002zm-6.124,6.123a3.134,3.134 0 0 1 0,-4.426a3.126,3.126 0 0 1 4.428,-0.001a3.135,3.135 0 0 1 0.003,4.429a3.136,3.136 0 0 1 -4.431,-0.002zm-4.707,1.748a2.098,2.098 0 0 1 2.962,-0.002a2.1,2.1 0 0 1 -2.969,2.967a2.1,2.1 0 0 1 0.007,-2.965zm-28.794,-15.948a4.175,4.175 0 0 1 -5.428,-2.31a4.174,4.174 0 0 1 2.31,-5.427a4.173,4.173 0 0 1 5.427,2.309a4.175,4.175 0 0 1 -2.309,5.428zm3.237,8.029a3.139,3.139 0 0 1 -4.079,-1.736a3.139,3.139 0 0 1 1.737,-4.077a3.14,3.14 0 0 1 4.078,1.736a3.138,3.138 0 0 1 -1.736,4.077z"/>
   <circle id="svg_5" r="2.094" cy="67.72352" cx="33.01641"/>
   <path id="svg_6" d="m8.04541,75.10552a4.174,4.174 0 0 1 -5.469,2.204a4.173,4.173 0 0 1 -2.208,-5.469a4.177,4.177 0 0 1 5.474,-2.205a4.176,4.176 0 0 1 2.203,5.47zm7.967,3.391a3.138,3.138 0 0 1 -4.111,1.655a3.137,3.137 0 0 1 -1.655,-4.109a3.138,3.138 0 0 1 4.11,-1.657a3.143,3.143 0 0 1 1.656,4.111zm3.382,3.714a2.095,2.095 0 1 1 1.637,-3.856a2.095,2.095 0 0 1 -1.637,3.856zm-11.619,20.949a4.176,4.176 0 0 1 -2.309,5.428a4.175,4.175 0 0 1 -5.428,-2.306a4.181,4.181 0 0 1 2.308,-5.432a4.185,4.185 0 0 1 5.429,2.31zm8.029,-3.235a3.14,3.14 0 0 1 -1.733,4.079a3.143,3.143 0 0 1 -4.078,-1.738a3.14,3.14 0 0 1 1.736,-4.076a3.134,3.134 0 0 1 4.075,1.735zm5.018,0.236a2.095,2.095 0 0 1 -2.727,-1.156a2.096,2.096 0 0 1 3.889,-1.568a2.096,2.096 0 0 1 -1.162,2.724zm6.601,23.03a4.174,4.174 0 0 1 2.203,5.47a4.174,4.174 0 0 1 -5.471,2.205a4.175,4.175 0 0 1 -2.205,-5.47a4.182,4.182 0 0 1 5.473,-2.205zm3.389,-7.966a3.136,3.136 0 0 1 1.657,4.107a3.128,3.128 0 0 1 -4.109,1.654a3.138,3.138 0 0 1 -1.657,-4.11a3.136,3.136 0 0 1 4.109,-1.651zm3.714,-3.383a2.098,2.098 0 0 1 -2.748,1.111a2.097,2.097 0 0 1 1.643,-3.856a2.093,2.093 0 0 1 1.105,2.745zm20.951,11.618a4.18,4.18 0 0 1 5.428,2.31a4.179,4.179 0 0 1 -2.31,5.427a4.176,4.176 0 0 1 -5.428,-2.31a4.182,4.182 0 0 1 2.31,-5.427z"/>
   <circle id="svg_7" r="3.132" cy="118.33452" cx="53.41141"/>
   <path id="svg_8" d="m52.47841,110.41252a2.094,2.094 0 0 1 -1.16,2.725a2.092,2.092 0 0 1 -2.728,-1.163a2.096,2.096 0 0 1 1.16,-2.725a2.103,2.103 0 0 1 2.728,1.163zm23.03,-6.6a4.174,4.174 0 0 1 5.467,-2.206a4.186,4.186 0 0 1 2.209,5.474a4.18,4.18 0 0 1 -5.471,2.205a4.18,4.18 0 0 1 -2.205,-5.473zm-7.967,-3.387a3.133,3.133 0 0 1 4.104,-1.658a3.126,3.126 0 0 1 1.654,4.107a3.13,3.13 0 0 1 -5.758,-2.449zm-3.382,-3.717a2.093,2.093 0 0 1 1.107,2.749a2.097,2.097 0 0 1 -2.752,1.104a2.094,2.094 0 1 1 1.645,-3.853zm11.617,-20.953a4.18,4.18 0 0 1 2.307,-5.426a4.177,4.177 0 0 1 5.429,2.309a4.172,4.172 0 0 1 -2.306,5.425a4.18,4.18 0 0 1 -5.43,-2.308zm-8.029,3.237a3.132,3.132 0 0 1 1.731,-4.073a3.127,3.127 0 0 1 4.075,1.733a3.136,3.136 0 0 1 -1.731,4.077a3.133,3.133 0 0 1 -4.075,-1.737zm-5.017,-0.234a2.095,2.095 0 0 1 1.561,3.886a2.1,2.1 0 0 1 -2.728,-1.159a2.104,2.104 0 0 1 1.167,-2.727zm-6.601,-23.031a4.176,4.176 0 0 1 -2.208,-5.467a4.183,4.183 0 0 1 5.476,-2.208a4.176,4.176 0 0 1 2.202,5.47a4.18,4.18 0 0 1 -5.47,2.205zm-3.39,7.967a3.134,3.134 0 0 1 -1.654,-4.104a3.125,3.125 0 0 1 4.104,-1.657a3.13,3.13 0 1 1 -2.45,5.761zm-3.713,3.381a2.098,2.098 0 0 1 2.745,-1.109a2.1,2.1 0 0 1 -1.645,3.861a2.102,2.102 0 0 1 -1.1,-2.752z"/>
  </g>
 </g>
</svg>